<?xml version='1.0' encoding='UTF-8' standalone='no'?>
<svg viewBox="0 0 2970 2100" xmlns:freecad="http://www.freecad.org/wiki/index.php?title=Svg_Namespace" height="210mm" xmlns:sodipodi="http://sodipodi.sourceforge.net/DTD/sodipodi-0.dtd" xmlns:svg="http://www.w3.org/2000/svg" xmlns:xlink="http://www.w3.org/1999/xlink" baseProfile="tiny" version="1.2" xmlns:rdf="http://www.w3.org/1999/02/22-rdf-syntax-ns#" xmlns:cc="http://creativecommons.org/ns#" xmlns:dc="http://purl.org/dc/elements/1.1/" xmlns:inkscape="http://www.inkscape.org/namespaces/inkscape" width="297mm" xmlns="http://www.w3.org/2000/svg">
 <title>FreeCAD SVG Export</title>
 <desc>Drawing page: Page007 exported from FreeCAD document: boite_n__2</desc>
 <defs/>
 <g id="Page007" inkscape:groupmode="layer" inkscape:label="TechDraw">
  <g transform="scale(10.000000, 10.000000)" id="A4_Landscape_blank1.svg" style="stroke: none;">
   <metadata id="metadata8">
    <rdf:RDF>
     <cc:Work rdf:about="">
      <dc:format>image/svg+xml</dc:format>
      <dc:type rdf:resource="http://purl.org/dc/dcmitype/StillImage"/>
     </cc:Work>
    </rdf:RDF>
   </metadata>
  </g>
  <g fill-rule="evenodd" id="DrawingContent" fill="none" stroke-width="1" stroke-linecap="square" stroke-linejoin="bevel" stroke="black">
   <g transform="matrix(1,0,0,1,1485,1050)" font-style="normal" fill="#ffffff" font-family="MS Shell Dlg 2" font-size="27.5167" font-weight="400" fill-opacity="1" stroke="none">
    <path fill-rule="evenodd" d="M450,600 L450,-600 L150,-600 L-450,200 L-450,600 L-100,600 L0,600 L200,600 L300,600 L450,600" vector-effect="non-scaling-stroke"/>
   </g>
   <g transform="matrix(1,0,0,1,1485,1050)" font-style="normal" fill="#ffffff" font-family="MS Shell Dlg 2" font-size="27.5167" font-weight="400" fill-opacity="1" stroke="none">
    <path fill-rule="evenodd" d="M301,500 C301,508.837 293.837,516 285,516 C276.163,516 269,508.837 269,500 C269,491.163 276.163,484 285,484 C293.837,484 301,491.163 301,500 " vector-effect="non-scaling-stroke"/>
   </g>
   <g transform="matrix(1,0,0,1,1485,1050)" font-style="normal" fill="#ffffff" font-family="MS Shell Dlg 2" font-size="27.5167" font-weight="400" fill-opacity="1" stroke="none">
    <path fill-rule="evenodd" d="M301,-500 C301,-491.163 293.837,-484 285,-484 C276.163,-484 269,-491.163 269,-500 C269,-508.837 276.163,-516 285,-516 C293.837,-516 301,-508.837 301,-500 " vector-effect="non-scaling-stroke"/>
   </g>
   <g transform="matrix(1,0,0,1,1485,1050)" font-style="normal" fill="#ffffff" font-family="MS Shell Dlg 2" font-size="27.5167" font-weight="400" fill-opacity="1" stroke="none">
    <path fill-rule="evenodd" d="M-269,500 C-269,508.837 -276.163,516 -285,516 C-293.837,516 -301,508.837 -301,500 C-301,491.163 -293.837,484 -285,484 C-276.163,484 -269,491.163 -269,500 " vector-effect="non-scaling-stroke"/>
   </g>
   <g transform="matrix(1,0,0,1,1485,1050)" stroke-opacity="1" font-style="normal" fill="none" stroke-width="7" stroke-linecap="round" stroke-linejoin="bevel" font-family="MS Shell Dlg 2" font-size="27.5167" font-weight="400" stroke="#000000">
    <path fill-rule="evenodd" d="M450,600 L450,-600" vector-effect="none"/>
   </g>
   <g transform="matrix(1,0,0,1,1485,1050)" stroke-opacity="1" font-style="normal" fill="none" stroke-width="7" stroke-linecap="round" stroke-linejoin="bevel" font-family="MS Shell Dlg 2" font-size="27.5167" font-weight="400" stroke="#000000">
    <path fill-rule="evenodd" d="M450,-600 L150,-600" vector-effect="none"/>
   </g>
   <g transform="matrix(1,0,0,1,1485,1050)" stroke-opacity="1" font-style="normal" fill="none" stroke-width="7" stroke-linecap="round" stroke-linejoin="bevel" font-family="MS Shell Dlg 2" font-size="27.5167" font-weight="400" stroke="#000000">
    <path fill-rule="evenodd" d="M150,-600 L-450,200" vector-effect="none"/>
   </g>
   <g transform="matrix(1,0,0,1,1485,1050)" stroke-opacity="1" font-style="normal" fill="none" stroke-width="7" stroke-linecap="round" stroke-linejoin="bevel" font-family="MS Shell Dlg 2" font-size="27.5167" font-weight="400" stroke="#000000">
    <path fill-rule="evenodd" d="M-450,200 L-450,600" vector-effect="none"/>
   </g>
   <g transform="matrix(1,0,0,1,1485,1050)" stroke-opacity="1" font-style="normal" fill="none" stroke-width="7" stroke-linecap="round" stroke-linejoin="bevel" font-family="MS Shell Dlg 2" font-size="27.5167" font-weight="400" stroke="#000000">
    <path fill-rule="evenodd" d="M-100,600 L-450,600" vector-effect="none"/>
   </g>
   <g transform="matrix(1,0,0,1,1485,1050)" stroke-opacity="1" font-style="normal" fill="none" stroke-width="7" stroke-linecap="round" stroke-linejoin="bevel" font-family="MS Shell Dlg 2" font-size="27.5167" font-weight="400" stroke="#000000">
    <path fill-rule="evenodd" d="M0,600 L-100,600" vector-effect="none"/>
   </g>
   <g transform="matrix(1,0,0,1,1485,1050)" stroke-opacity="1" font-style="normal" fill="none" stroke-width="7" stroke-linecap="round" stroke-linejoin="bevel" font-family="MS Shell Dlg 2" font-size="27.5167" font-weight="400" stroke="#000000">
    <path fill-rule="evenodd" d="M200,600 L0,600" vector-effect="none"/>
   </g>
   <g transform="matrix(1,0,0,1,1485,1050)" stroke-opacity="1" font-style="normal" fill="none" stroke-width="7" stroke-linecap="round" stroke-linejoin="bevel" font-family="MS Shell Dlg 2" font-size="27.5167" font-weight="400" stroke="#000000">
    <path fill-rule="evenodd" d="M300,600 L200,600" vector-effect="none"/>
   </g>
   <g transform="matrix(1,0,0,1,1485,1050)" stroke-opacity="1" font-style="normal" fill="none" stroke-width="7" stroke-linecap="round" stroke-linejoin="bevel" font-family="MS Shell Dlg 2" font-size="27.5167" font-weight="400" stroke="#000000">
    <path fill-rule="evenodd" d="M450,600 L300,600" vector-effect="none"/>
   </g>
   <g transform="matrix(1,0,0,1,1485,1050)" stroke-opacity="1" font-style="normal" fill="none" stroke-width="7" stroke-linecap="round" stroke-linejoin="bevel" font-family="MS Shell Dlg 2" font-size="27.5167" font-weight="400" stroke="#000000">
    <path fill-rule="evenodd" d="M301,500 C301,508.837 293.837,516 285,516 C276.163,516 269,508.837 269,500 C269,491.163 276.163,484 285,484 C293.837,484 301,491.163 301,500 " vector-effect="none"/>
   </g>
   <g transform="matrix(1,0,0,1,1485,1050)" stroke-opacity="1" font-style="normal" fill="none" stroke-width="7" stroke-linecap="round" stroke-linejoin="bevel" font-family="MS Shell Dlg 2" font-size="27.5167" font-weight="400" stroke="#000000">
    <path fill-rule="evenodd" d="M301,-500 C301,-491.163 293.837,-484 285,-484 C276.163,-484 269,-491.163 269,-500 C269,-508.837 276.163,-516 285,-516 C293.837,-516 301,-508.837 301,-500 " vector-effect="none"/>
   </g>
   <g transform="matrix(1,0,0,1,1485,1050)" stroke-opacity="1" font-style="normal" fill="none" stroke-width="7" stroke-linecap="round" stroke-linejoin="bevel" font-family="MS Shell Dlg 2" font-size="27.5167" font-weight="400" stroke="#000000">
    <path fill-rule="evenodd" d="M-269,500 C-269,508.837 -276.163,516 -285,516 C-293.837,516 -301,508.837 -301,500 C-301,491.163 -293.837,484 -285,484 C-276.163,484 -269,491.163 -269,500 " vector-effect="none"/>
   </g>
  </g>
 </g>
</svg>
