<?xml version="1.0" encoding="UTF-8" standalone="no"?>
<svg
   version="1.2"
   width="297mm"
   viewBox="0 0 2970 2100"
   height="210mm"
   id="svg24"
   sodipodi:docname="cote-gauche.svg"
   inkscape:version="1.3 (0e150ed6c4, 2023-07-21)"
   xmlns:inkscape="http://www.inkscape.org/namespaces/inkscape"
   xmlns:sodipodi="http://sodipodi.sourceforge.net/DTD/sodipodi-0.dtd"
   xmlns="http://www.w3.org/2000/svg"
   xmlns:svg="http://www.w3.org/2000/svg"
   xmlns:rdf="http://www.w3.org/1999/02/22-rdf-syntax-ns#"
   xmlns:cc="http://creativecommons.org/ns#"
   xmlns:dc="http://purl.org/dc/elements/1.1/">
  <sodipodi:namedview
     id="namedview24"
     pagecolor="#505050"
     bordercolor="#eeeeee"
     borderopacity="1"
     inkscape:showpageshadow="0"
     inkscape:pageopacity="0"
     inkscape:pagecheckerboard="0"
     inkscape:deskcolor="#505050"
     inkscape:document-units="mm"
     inkscape:zoom="0.48252499"
     inkscape:cx="389.61713"
     inkscape:cy="571.99111"
     inkscape:window-width="1920"
     inkscape:window-height="991"
     inkscape:window-x="-9"
     inkscape:window-y="-9"
     inkscape:window-maximized="1"
     inkscape:current-layer="Page" />
  <title
     id="title1">FreeCAD SVG Export</title>
  <desc
     id="desc1">Drawing page: Page exported from FreeCAD document: boite_n__2</desc>
  <defs
     id="defs1" />
  <g
     inkscape:groupmode="layer"
     id="Page"
     inkscape:label="TechDraw">
    <g
       id="A4_Landscape_blank.svg"
       transform="scale(10.000000, 10.000000)"
       style="stroke: none;">
      <metadata
         id="metadata8">
        <rdf:RDF>
          <cc:Work
             rdf:about="">
            <dc:format>image/svg+xml</dc:format>
            <dc:type
               rdf:resource="http://purl.org/dc/dcmitype/StillImage" />
            <dc:title>FreeCAD SVG Export</dc:title>
          </cc:Work>
        </rdf:RDF>
      </metadata>
    </g>
    <g
       id="g1">
      <g
         id="g24">
        <path
           vector-effect="non-scaling-stroke"
           d="M 1035,1650 V 450 h 300 l 600,800 v 400 h -350 -100 -200 -100 -150"
           fill-rule="evenodd"
           id="path1"
           style="font-style:normal;font-weight:400;font-size:27.5167px;font-family:'MS Shell Dlg 2';fill:none;fill-opacity:1;stroke:#ff0000;stroke-width:1;stroke-linecap:square;stroke-linejoin:bevel;stroke-opacity:1" />
        <path
           vector-effect="non-scaling-stroke"
           d="M 1415,639.733 V 1130 H 1085 V 510 h 232.7 l 97.3,129.733"
           fill-rule="evenodd"
           id="path2"
           style="font-style:normal;font-weight:400;font-size:27.5167px;font-family:'MS Shell Dlg 2';fill:none;fill-opacity:1;stroke:#ff0000;stroke-width:1;stroke-linecap:square;stroke-linejoin:bevel;stroke-opacity:1" />
        <path
           vector-effect="non-scaling-stroke"
           d="m 1505,770 c 0,11.046 -8.9543,20 -20,20 -11.0457,0 -20,-8.954 -20,-20 0,-11.046 8.9543,-20 20,-20 11.0457,0 20,8.954 20,20"
           fill-rule="evenodd"
           id="path3"
           style="font-style:normal;font-weight:400;font-size:27.5167px;font-family:'MS Shell Dlg 2';fill:none;fill-opacity:1;stroke:#ff0000;stroke-width:1;stroke-linecap:square;stroke-linejoin:bevel;stroke-opacity:1" />
        <path
           vector-effect="non-scaling-stroke"
           d="m 1786,1550 c 0,8.837 -7.163,16 -16,16 -8.837,0 -16,-7.163 -16,-16 0,-8.837 7.163,-16 16,-16 8.837,0 16,7.163 16,16"
           fill-rule="evenodd"
           id="path4"
           style="font-style:normal;font-weight:400;font-size:27.5167px;font-family:'MS Shell Dlg 2';fill:none;fill-opacity:1;stroke:#ff0000;stroke-width:1;stroke-linecap:square;stroke-linejoin:bevel;stroke-opacity:1" />
        <path
           vector-effect="non-scaling-stroke"
           d="m 1216,1550 c 0,8.837 -7.163,16 -16,16 -8.837,0 -16,-7.163 -16,-16 0,-8.837 7.163,-16 16,-16 8.837,0 16,7.163 16,16"
           fill-rule="evenodd"
           id="path5"
           style="font-style:normal;font-weight:400;font-size:27.5167px;font-family:'MS Shell Dlg 2';fill:none;fill-opacity:1;stroke:#ff0000;stroke-width:1;stroke-linecap:square;stroke-linejoin:bevel;stroke-opacity:1" />
        <path
           vector-effect="non-scaling-stroke"
           d="m 1512.5,925 c 0,6.904 -5.5964,12.5 -12.5,12.5 -6.9036,0 -12.5,-5.596 -12.5,-12.5 0,-6.904 5.5964,-12.5 12.5,-12.5 6.9036,0 12.5,5.596 12.5,12.5"
           fill-rule="evenodd"
           id="path6"
           style="font-style:normal;font-weight:400;font-size:27.5167px;font-family:'MS Shell Dlg 2';fill:none;fill-opacity:1;stroke:#ff0000;stroke-width:1;stroke-linecap:square;stroke-linejoin:bevel;stroke-opacity:1" />
      </g>
      <text
         xml:space="preserve"
         style="font-size:122.855px;font-family:Calibri;-inkscape-font-specification:Calibri;fill:#000000;stroke-width:2.11853"
         x="1145.0514"
         y="842.27435"
         id="text1"><tspan
           sodipodi:role="line"
           id="tspan1"
           style="stroke-width:2.11853"
           x="1145.0514"
           y="842.27435">PILE</tspan></text>
    </g>
  </g>
</svg>
