<?xml version='1.0' encoding='UTF-8' standalone='no'?>
<svg version="1.2" xmlns:svg="http://www.w3.org/2000/svg" width="297mm" viewBox="0 0 2970 2100" height="210mm" xmlns:xlink="http://www.w3.org/1999/xlink" xmlns:freecad="http://www.freecad.org/wiki/index.php?title=Svg_Namespace" xmlns:inkscape="http://www.inkscape.org/namespaces/inkscape" xmlns:cc="http://creativecommons.org/ns#" xmlns:sodipodi="http://sodipodi.sourceforge.net/DTD/sodipodi-0.dtd" xmlns:rdf="http://www.w3.org/1999/02/22-rdf-syntax-ns#" xmlns:dc="http://purl.org/dc/elements/1.1/" xmlns="http://www.w3.org/2000/svg" baseProfile="tiny">
 <title>FreeCAD SVG Export</title>
 <desc>Drawing page: Page005 exported from FreeCAD document: boite_n__2</desc>
 <defs/>
 <g inkscape:groupmode="layer" id="Page005" inkscape:label="TechDraw">
  <g id="A4_Landscape_blank5.svg" transform="scale(10.000000, 10.000000)" style="stroke: none;">
   <metadata id="metadata8">
    <rdf:RDF>
     <cc:Work rdf:about="">
      <dc:format>image/svg+xml</dc:format>
      <dc:type rdf:resource="http://purl.org/dc/dcmitype/StillImage"/>
     </cc:Work>
    </rdf:RDF>
   </metadata>
  </g>
  <g stroke-linecap="square" stroke-linejoin="bevel" stroke="black" stroke-width="1" fill="none" id="DrawingContent" fill-rule="evenodd">
   <g font-weight="400" fill-opacity="1" stroke="none" font-family="MS Shell Dlg 2" font-size="27.5167" fill="#ffffff" transform="matrix(1,0,0,1,1485,1050)" font-style="normal">
    <path vector-effect="non-scaling-stroke" d="M450,-110 L450,110 L-450,110 L-450,-110 L450,-110" fill-rule="evenodd"/>
   </g>
   <g font-weight="400" fill-opacity="1" stroke="none" font-family="MS Shell Dlg 2" font-size="27.5167" fill="#ffffff" transform="matrix(1,0,0,1,1485,1050)" font-style="normal">
    <path vector-effect="non-scaling-stroke" d="M356,-7.10543e-14 C356,8.83656 348.837,16 340,16 C331.163,16 324,8.83656 324,-7.10543e-14 C324,-8.83656 331.163,-16 340,-16 C348.837,-16 356,-8.83656 356,-7.10543e-14 " fill-rule="evenodd"/>
   </g>
   <g font-weight="400" fill-opacity="1" stroke="none" font-family="MS Shell Dlg 2" font-size="27.5167" fill="#ffffff" transform="matrix(1,0,0,1,1485,1050)" font-style="normal">
    <path vector-effect="non-scaling-stroke" d="M-324,8.88178e-14 C-324,8.83656 -331.163,16 -340,16 C-348.837,16 -356,8.83656 -356,8.88178e-14 C-356,-8.83656 -348.837,-16 -340,-16 C-331.163,-16 -324,-8.83656 -324,8.88178e-14 " fill-rule="evenodd"/>
   </g>
   <g stroke-opacity="1" font-weight="400" stroke-linecap="round" stroke-linejoin="bevel" stroke="#000000" stroke-width="7" font-family="MS Shell Dlg 2" font-size="27.5167" fill="none" transform="matrix(1,0,0,1,1485,1050)" font-style="normal">
    <path vector-effect="none" d="M450,110 L-450,110" fill-rule="evenodd"/>
   </g>
   <g stroke-opacity="1" font-weight="400" stroke-linecap="round" stroke-linejoin="bevel" stroke="#000000" stroke-width="7" font-family="MS Shell Dlg 2" font-size="27.5167" fill="none" transform="matrix(1,0,0,1,1485,1050)" font-style="normal">
    <path vector-effect="none" d="M-450,110 L-450,-110" fill-rule="evenodd"/>
   </g>
   <g stroke-opacity="1" font-weight="400" stroke-linecap="round" stroke-linejoin="bevel" stroke="#000000" stroke-width="7" font-family="MS Shell Dlg 2" font-size="27.5167" fill="none" transform="matrix(1,0,0,1,1485,1050)" font-style="normal">
    <path vector-effect="none" d="M-450,-110 L450,-110" fill-rule="evenodd"/>
   </g>
   <g stroke-opacity="1" font-weight="400" stroke-linecap="round" stroke-linejoin="bevel" stroke="#000000" stroke-width="7" font-family="MS Shell Dlg 2" font-size="27.5167" fill="none" transform="matrix(1,0,0,1,1485,1050)" font-style="normal">
    <path vector-effect="none" d="M450,-110 L450,110" fill-rule="evenodd"/>
   </g>
   <g stroke-opacity="1" font-weight="400" stroke-linecap="round" stroke-linejoin="bevel" stroke="#000000" stroke-width="7" font-family="MS Shell Dlg 2" font-size="27.5167" fill="none" transform="matrix(1,0,0,1,1485,1050)" font-style="normal">
    <path vector-effect="none" d="M356,-7.10543e-14 C356,8.83656 348.837,16 340,16 C331.163,16 324,8.83656 324,-7.10543e-14 C324,-8.83656 331.163,-16 340,-16 C348.837,-16 356,-8.83656 356,-7.10543e-14 " fill-rule="evenodd"/>
   </g>
   <g stroke-opacity="1" font-weight="400" stroke-linecap="round" stroke-linejoin="bevel" stroke="#000000" stroke-width="7" font-family="MS Shell Dlg 2" font-size="27.5167" fill="none" transform="matrix(1,0,0,1,1485,1050)" font-style="normal">
    <path vector-effect="none" d="M-324,8.88178e-14 C-324,8.83656 -331.163,16 -340,16 C-348.837,16 -356,8.83656 -356,8.88178e-14 C-356,-8.83656 -348.837,-16 -340,-16 C-331.163,-16 -324,-8.83656 -324,8.88178e-14 " fill-rule="evenodd"/>
   </g>
  </g>
 </g>
</svg>
